<svg xmlns="http://www.w3.org/2000/svg" viewBox="0 0 512 512" role="img" aria-labelledby="title desc">
  <title id="title">egui-minesweeper icon</title>
  <desc id="desc">A stylized minesweeper tile with a mine and a flag.</desc>
  <defs>
    <linearGradient id="bg" x1="0" y1="0" x2="1" y2="1">
      <stop offset="0%" stop-color="#17324D"/>
      <stop offset="100%" stop-color="#0E1E2E"/>
    </linearGradient>
    <linearGradient id="tile" x1="0" y1="0" x2="1" y2="1">
      <stop offset="0%" stop-color="#F6F7F9"/>
      <stop offset="100%" stop-color="#D7DEE8"/>
    </linearGradient>
  </defs>
  <rect x="24" y="24" width="464" height="464" rx="104" fill="url(#bg)"/>
  <rect x="96" y="102" width="336" height="336" rx="54" fill="#000000" opacity="0.22"/>
  <rect x="88" y="88" width="336" height="336" rx="54" fill="url(#tile)"/>
  <path d="M88 142c0-30 24-54 54-54h228c30 0 54 24 54 54v8H88z" fill="#FFFFFF" opacity="0.65"/>
  <path d="M88 370h336v0c0 30-24 54-54 54H142c-30 0-54-24-54-54z" fill="#AEB8C7" opacity="0.6"/>
  <g transform="translate(256 252)">
    <circle r="52" fill="#20242B"/>
    <circle r="16" fill="#0F1217"/>
    <g stroke="#20242B" stroke-width="10" stroke-linecap="round">
      <line x1="0" y1="-84" x2="0" y2="-62"/>
      <line x1="0" y1="84" x2="0" y2="62"/>
      <line x1="-84" y1="0" x2="-62" y2="0"/>
      <line x1="84" y1="0" x2="62" y2="0"/>
      <line x1="-60" y1="-60" x2="-44" y2="-44"/>
      <line x1="60" y1="60" x2="44" y2="44"/>
      <line x1="-60" y1="60" x2="-44" y2="44"/>
      <line x1="60" y1="-60" x2="44" y2="-44"/>
    </g>
    <circle cx="-16" cy="-16" r="8" fill="#E6ECF5" opacity="0.75"/>
  </g>
  <g transform="translate(324 320)">
    <rect x="-7" y="-62" width="14" height="86" rx="6" fill="#5B6678"/>
    <path d="M7 -56 L66 -34 L7 -13 Z" fill="#E54848"/>
    <path d="M7 -56 L47 -43 L7 -31 Z" fill="#FF7777"/>
    <ellipse cx="0" cy="26" rx="24" ry="8" fill="#0B1520" opacity="0.25"/>
  </g>
</svg>
